<mxfile host="app.diagrams.net" agent="Mozilla/5.0 (Macintosh; Intel Mac OS X 10_15_7) AppleWebKit/537.36 (KHTML, like Gecko) Chrome/139.0.0.0 Safari/537.36" version="27.0.9">
  <diagram name="Страница — 1" id="MSdTYRvq3P2I-4wZW1ng">
    <mxGraphModel dx="1051" dy="678" grid="1" gridSize="10" guides="1" tooltips="1" connect="1" arrows="1" fold="1" page="1" pageScale="1" pageWidth="827" pageHeight="1169" math="0" shadow="0">
      <root>
        <mxCell id="0" />
        <mxCell id="1" parent="0" />
        <mxCell id="Yvbh-BLU_4QAz3EFtGWB-11" style="edgeStyle=orthogonalEdgeStyle;rounded=0;orthogonalLoop=1;jettySize=auto;html=1;entryX=0;entryY=0.5;entryDx=0;entryDy=0;" parent="1" source="Yvbh-BLU_4QAz3EFtGWB-1" target="Yvbh-BLU_4QAz3EFtGWB-7" edge="1">
          <mxGeometry relative="1" as="geometry" />
        </mxCell>
        <mxCell id="Yvbh-BLU_4QAz3EFtGWB-12" style="edgeStyle=orthogonalEdgeStyle;rounded=0;orthogonalLoop=1;jettySize=auto;html=1;entryX=0;entryY=0.5;entryDx=0;entryDy=0;" parent="1" source="Yvbh-BLU_4QAz3EFtGWB-1" target="Yvbh-BLU_4QAz3EFtGWB-8" edge="1">
          <mxGeometry relative="1" as="geometry" />
        </mxCell>
        <mxCell id="Yvbh-BLU_4QAz3EFtGWB-1" value="Инженер" style="shape=umlActor;verticalLabelPosition=bottom;verticalAlign=top;html=1;outlineConnect=0;" parent="1" vertex="1">
          <mxGeometry x="360" y="210" width="30" height="60" as="geometry" />
        </mxCell>
        <mxCell id="Yvbh-BLU_4QAz3EFtGWB-7" value="зарегистрировать дефект" style="ellipse;whiteSpace=wrap;html=1;" parent="1" vertex="1">
          <mxGeometry x="530" y="170" width="220" height="60" as="geometry" />
        </mxCell>
        <mxCell id="Yvbh-BLU_4QAz3EFtGWB-8" value="обновить информацию о дефекте" style="ellipse;whiteSpace=wrap;html=1;" parent="1" vertex="1">
          <mxGeometry x="530" y="250" width="220" height="60" as="geometry" />
        </mxCell>
        <mxCell id="CjR_CbAE9RgJ-SXlWwam-6" style="edgeStyle=orthogonalEdgeStyle;rounded=0;orthogonalLoop=1;jettySize=auto;html=1;entryX=1;entryY=0.5;entryDx=0;entryDy=0;" edge="1" parent="1" source="Yvbh-BLU_4QAz3EFtGWB-20" target="Yvbh-BLU_4QAz3EFtGWB-21">
          <mxGeometry relative="1" as="geometry">
            <Array as="points">
              <mxPoint x="530" y="420" />
              <mxPoint x="530" y="350" />
            </Array>
          </mxGeometry>
        </mxCell>
        <mxCell id="CjR_CbAE9RgJ-SXlWwam-7" style="edgeStyle=orthogonalEdgeStyle;rounded=0;orthogonalLoop=1;jettySize=auto;html=1;entryX=1;entryY=0.5;entryDx=0;entryDy=0;" edge="1" parent="1" source="Yvbh-BLU_4QAz3EFtGWB-20" target="Yvbh-BLU_4QAz3EFtGWB-22">
          <mxGeometry relative="1" as="geometry" />
        </mxCell>
        <mxCell id="CjR_CbAE9RgJ-SXlWwam-13" style="edgeStyle=orthogonalEdgeStyle;rounded=0;orthogonalLoop=1;jettySize=auto;html=1;entryX=1;entryY=0.5;entryDx=0;entryDy=0;" edge="1" parent="1" source="Yvbh-BLU_4QAz3EFtGWB-20" target="CjR_CbAE9RgJ-SXlWwam-2">
          <mxGeometry relative="1" as="geometry" />
        </mxCell>
        <mxCell id="Yvbh-BLU_4QAz3EFtGWB-20" value="менеджер" style="shape=umlActor;verticalLabelPosition=bottom;verticalAlign=top;html=1;outlineConnect=0;" parent="1" vertex="1">
          <mxGeometry x="630" y="390" width="30" height="60" as="geometry" />
        </mxCell>
        <mxCell id="Yvbh-BLU_4QAz3EFtGWB-21" value="назначить задачу инженеру" style="ellipse;whiteSpace=wrap;html=1;" parent="1" vertex="1">
          <mxGeometry x="220" y="320" width="220" height="60" as="geometry" />
        </mxCell>
        <mxCell id="Yvbh-BLU_4QAz3EFtGWB-22" value="Сформировать отчет о дефектах на объекте" style="ellipse;whiteSpace=wrap;html=1;" parent="1" vertex="1">
          <mxGeometry x="220" y="460" width="220" height="60" as="geometry" />
        </mxCell>
        <mxCell id="Yvbh-BLU_4QAz3EFtGWB-24" style="edgeStyle=orthogonalEdgeStyle;rounded=0;orthogonalLoop=1;jettySize=auto;html=1;entryX=0;entryY=0.5;entryDx=0;entryDy=0;" parent="1" source="Yvbh-BLU_4QAz3EFtGWB-25" target="Yvbh-BLU_4QAz3EFtGWB-27" edge="1">
          <mxGeometry relative="1" as="geometry" />
        </mxCell>
        <mxCell id="CjR_CbAE9RgJ-SXlWwam-10" style="edgeStyle=orthogonalEdgeStyle;rounded=0;orthogonalLoop=1;jettySize=auto;html=1;entryX=0;entryY=0.5;entryDx=0;entryDy=0;" edge="1" parent="1" source="Yvbh-BLU_4QAz3EFtGWB-25" target="CjR_CbAE9RgJ-SXlWwam-9">
          <mxGeometry relative="1" as="geometry" />
        </mxCell>
        <mxCell id="Yvbh-BLU_4QAz3EFtGWB-25" value="руководитель" style="shape=umlActor;verticalLabelPosition=bottom;verticalAlign=top;html=1;outlineConnect=0;" parent="1" vertex="1">
          <mxGeometry x="360" y="580" width="30" height="60" as="geometry" />
        </mxCell>
        <mxCell id="Yvbh-BLU_4QAz3EFtGWB-26" value="скачать отчет" style="ellipse;whiteSpace=wrap;html=1;" parent="1" vertex="1">
          <mxGeometry x="535" y="640" width="220" height="60" as="geometry" />
        </mxCell>
        <mxCell id="Yvbh-BLU_4QAz3EFtGWB-27" value="просмотр активных дефектов и их статусов, остальной информации" style="ellipse;whiteSpace=wrap;html=1;" parent="1" vertex="1">
          <mxGeometry x="535" y="720" width="220" height="60" as="geometry" />
        </mxCell>
        <mxCell id="CjR_CbAE9RgJ-SXlWwam-2" value="Посмотреть информацию по задаче" style="ellipse;whiteSpace=wrap;html=1;" vertex="1" parent="1">
          <mxGeometry x="220" y="390" width="220" height="60" as="geometry" />
        </mxCell>
        <mxCell id="CjR_CbAE9RgJ-SXlWwam-12" style="edgeStyle=orthogonalEdgeStyle;rounded=0;orthogonalLoop=1;jettySize=auto;html=1;entryX=0.5;entryY=0;entryDx=0;entryDy=0;" edge="1" parent="1" source="CjR_CbAE9RgJ-SXlWwam-9" target="Yvbh-BLU_4QAz3EFtGWB-26">
          <mxGeometry relative="1" as="geometry" />
        </mxCell>
        <mxCell id="CjR_CbAE9RgJ-SXlWwam-9" value="Просмотреть отчет о дефектах на объекте" style="ellipse;whiteSpace=wrap;html=1;" vertex="1" parent="1">
          <mxGeometry x="530" y="540" width="220" height="60" as="geometry" />
        </mxCell>
      </root>
    </mxGraphModel>
  </diagram>
</mxfile>
